<svg width="16" height="16" viewBox="0 0 16 16" fill="none" xmlns="http://www.w3.org/2000/svg">
<path d="M7.03086 1.62466C7.1532 1.76046 7.30271 1.86904 7.46969 1.94336C7.63668 2.01768 7.81742 2.05609 8.0002 2.05609C8.18298 2.05609 8.36372 2.01768 8.5307 1.94336C8.69769 1.86904 8.84719 1.76046 8.96953 1.62466L9.5962 0.930661C9.77689 0.730358 10.0152 0.590924 10.2783 0.531515C10.5414 0.472107 10.8165 0.495639 11.0657 0.598879C11.315 0.702119 11.5261 0.880001 11.6702 1.10808C11.8142 1.33617 11.8841 1.60326 11.8702 1.87266L11.8222 2.80599C11.8129 2.98853 11.842 3.17098 11.9077 3.34156C11.9733 3.51215 12.074 3.66706 12.2032 3.7963C12.3325 3.92554 12.4874 4.02623 12.658 4.09186C12.8285 4.15749 13.011 4.18661 13.1935 4.17733L14.1269 4.12999C14.3959 4.11673 14.6625 4.187 14.8901 4.33119C15.1177 4.47537 15.2951 4.68641 15.3981 4.93537C15.501 5.18434 15.5244 5.45905 15.4651 5.72185C15.4059 5.98465 15.2667 6.22268 15.0669 6.40333L14.3722 7.03066C14.2366 7.15311 14.1282 7.30265 14.054 7.46962C13.9798 7.63659 13.9414 7.81728 13.9414 7.99999C13.9414 8.18271 13.9798 8.36339 14.054 8.53036C14.1282 8.69733 14.2366 8.84688 14.3722 8.96933L15.0669 9.59599C15.2672 9.77669 15.4066 10.015 15.466 10.2781C15.5254 10.5412 15.5019 10.8163 15.3986 11.0655C15.2954 11.3148 15.1175 11.5259 14.8894 11.67C14.6614 11.814 14.3943 11.8839 14.1249 11.87L13.1915 11.822C13.0091 11.8127 12.8267 11.8418 12.6561 11.9074C12.4856 11.973 12.3307 12.0736 12.2015 12.2028C12.0723 12.332 11.9716 12.4868 11.9059 12.6573C11.8402 12.8278 11.811 13.0102 11.8202 13.1927L11.8682 14.126C11.8813 14.3948 11.811 14.6612 11.6669 14.8885C11.5228 15.1159 11.312 15.2932 11.0633 15.3961C10.8146 15.4991 10.5402 15.5227 10.2776 15.4637C10.015 15.4047 9.77699 15.2661 9.5962 15.0667L8.96953 14.3727C8.84708 14.237 8.69754 14.1286 8.53057 14.0544C8.3636 13.9802 8.18291 13.9419 8.0002 13.9419C7.81748 13.9419 7.6368 13.9802 7.46983 14.0544C7.30286 14.1286 7.15331 14.237 7.03086 14.3727L6.4042 15.0667C6.22337 15.2654 5.98563 15.4036 5.72339 15.4623C5.46116 15.521 5.18721 15.4974 4.93889 15.3946C4.69058 15.2919 4.48 15.1151 4.33587 14.8883C4.19174 14.6615 4.12108 14.3958 4.13353 14.1273L4.18153 13.194C4.19116 13.0111 4.16218 12.8281 4.09646 12.6571C4.03075 12.4861 3.92978 12.3309 3.80012 12.2015C3.67045 12.0721 3.51501 11.9714 3.34388 11.906C3.17276 11.8406 2.98978 11.812 2.80687 11.822L1.87353 11.87C1.6043 11.8834 1.33751 11.8132 1.10976 11.669C0.882016 11.5248 0.704473 11.3137 0.601495 11.0645C0.498517 10.8154 0.475148 10.5405 0.534597 10.2776C0.594045 10.0147 0.733397 9.77658 0.933532 9.59599L1.6282 8.96933C1.76381 8.84688 1.87223 8.69733 1.94643 8.53036C2.02063 8.36339 2.05897 8.18271 2.05897 7.99999C2.05897 7.81728 2.02063 7.63659 1.94643 7.46962C1.87223 7.30265 1.76381 7.15311 1.6282 7.03066L0.933532 6.40333C0.735014 6.22244 0.597087 5.98476 0.538543 5.72265C0.479999 5.46054 0.503686 5.18676 0.606375 4.9386C0.709064 4.69044 0.885762 4.47997 1.1124 4.33587C1.33903 4.19177 1.60458 4.12104 1.87287 4.13333L2.8062 4.18066C2.98908 4.19028 3.17193 4.16131 3.34288 4.09564C3.51383 4.02996 3.66905 3.92905 3.79845 3.79947C3.92785 3.66988 4.02853 3.51451 4.09396 3.34347C4.15938 3.17242 4.18809 2.98952 4.1782 2.80666L4.13353 1.87266C4.12108 1.60423 4.19174 1.33849 4.33587 1.11169C4.48 0.884889 4.69058 0.708069 4.93889 0.605347C5.18721 0.502624 5.46116 0.479 5.72339 0.537695C5.98563 0.596391 6.22337 0.73455 6.4042 0.933327L7.03086 1.62466Z" stroke="#262626" stroke-linecap="round" stroke-linejoin="round"/>
<path d="M4.5 10.5H12" stroke="#262626" stroke-linecap="round" stroke-linejoin="round"/>
<path d="M5 5.5H7V10.5H5V5.5Z" stroke="#262626" stroke-linecap="round" stroke-linejoin="round"/>
<path d="M9 7.5H11V10.5H9V7.5Z" stroke="#262626" stroke-linecap="round" stroke-linejoin="round"/>
</svg>
